<mxfile host="Electron" agent="Mozilla/5.0 (Windows NT 10.0; Win64; x64) AppleWebKit/537.36 (KHTML, like Gecko) draw.io/26.0.16 Chrome/132.0.6834.196 Electron/34.2.0 Safari/537.36" version="26.0.16">
  <diagram name="Page-1" id="GdBDvxG_lP6k2YxFdhlR">
    <mxGraphModel dx="1635" dy="731" grid="0" gridSize="10" guides="1" tooltips="1" connect="1" arrows="1" fold="1" page="0" pageScale="1" pageWidth="2000" pageHeight="2000" math="0" shadow="0">
      <root>
        <mxCell id="0" />
        <mxCell id="1" parent="0" />
        <mxCell id="lcf4eC53sndH74b5lOGO-141" value="Hệ thống" style="swimlane;startSize=23;" vertex="1" parent="1">
          <mxGeometry x="393" y="190" width="673" height="910" as="geometry" />
        </mxCell>
        <mxCell id="lcf4eC53sndH74b5lOGO-142" value="Hiển thị danh sách sản phẩm" style="rounded=1;whiteSpace=wrap;html=1;arcSize=40;fontColor=#000000;fillColor=#FFFFFF;strokeColor=#000000;" vertex="1" parent="lcf4eC53sndH74b5lOGO-141">
          <mxGeometry x="30" y="110" width="150" height="40" as="geometry" />
        </mxCell>
        <mxCell id="lcf4eC53sndH74b5lOGO-143" style="edgeStyle=orthogonalEdgeStyle;rounded=0;orthogonalLoop=1;jettySize=auto;html=1;exitX=0.5;exitY=1;exitDx=0;exitDy=0;entryX=0.5;entryY=0;entryDx=0;entryDy=0;" edge="1" parent="lcf4eC53sndH74b5lOGO-141" source="lcf4eC53sndH74b5lOGO-147" target="lcf4eC53sndH74b5lOGO-148">
          <mxGeometry relative="1" as="geometry">
            <mxPoint x="85" y="580" as="targetPoint" />
          </mxGeometry>
        </mxCell>
        <mxCell id="lcf4eC53sndH74b5lOGO-144" value="[Không hợp lệ]" style="edgeLabel;html=1;align=center;verticalAlign=middle;resizable=0;points=[];" vertex="1" connectable="0" parent="lcf4eC53sndH74b5lOGO-143">
          <mxGeometry x="-0.1365" y="3" relative="1" as="geometry">
            <mxPoint as="offset" />
          </mxGeometry>
        </mxCell>
        <mxCell id="lcf4eC53sndH74b5lOGO-145" style="edgeStyle=orthogonalEdgeStyle;rounded=0;orthogonalLoop=1;jettySize=auto;html=1;exitX=1;exitY=0.5;exitDx=0;exitDy=0;entryX=0;entryY=0.5;entryDx=0;entryDy=0;" edge="1" parent="lcf4eC53sndH74b5lOGO-141" source="lcf4eC53sndH74b5lOGO-147" target="lcf4eC53sndH74b5lOGO-198">
          <mxGeometry relative="1" as="geometry">
            <mxPoint x="530" y="478" as="targetPoint" />
          </mxGeometry>
        </mxCell>
        <mxCell id="lcf4eC53sndH74b5lOGO-146" value="[Hợp lệ]" style="edgeLabel;html=1;align=center;verticalAlign=middle;resizable=0;points=[];" vertex="1" connectable="0" parent="lcf4eC53sndH74b5lOGO-145">
          <mxGeometry x="-0.9344" y="-2" relative="1" as="geometry">
            <mxPoint x="28" as="offset" />
          </mxGeometry>
        </mxCell>
        <mxCell id="lcf4eC53sndH74b5lOGO-149" value="" style="ellipse;html=1;shape=endState;fillColor=#000000;strokeColor=#000000;" vertex="1" parent="lcf4eC53sndH74b5lOGO-141">
          <mxGeometry x="586" y="853" width="30" height="30" as="geometry" />
        </mxCell>
        <mxCell id="lcf4eC53sndH74b5lOGO-194" style="edgeStyle=orthogonalEdgeStyle;rounded=0;orthogonalLoop=1;jettySize=auto;html=1;exitX=1;exitY=0.5;exitDx=0;exitDy=0;entryX=0.5;entryY=1;entryDx=0;entryDy=0;" edge="1" parent="lcf4eC53sndH74b5lOGO-141" source="lcf4eC53sndH74b5lOGO-150" target="lcf4eC53sndH74b5lOGO-192">
          <mxGeometry relative="1" as="geometry" />
        </mxCell>
        <mxCell id="lcf4eC53sndH74b5lOGO-151" style="edgeStyle=orthogonalEdgeStyle;rounded=0;orthogonalLoop=1;jettySize=auto;html=1;exitX=0.5;exitY=1;exitDx=0;exitDy=0;entryX=0.5;entryY=0;entryDx=0;entryDy=0;" edge="1" parent="lcf4eC53sndH74b5lOGO-141" source="lcf4eC53sndH74b5lOGO-152" target="lcf4eC53sndH74b5lOGO-154">
          <mxGeometry relative="1" as="geometry">
            <mxPoint x="495" y="890" as="targetPoint" />
          </mxGeometry>
        </mxCell>
        <mxCell id="lcf4eC53sndH74b5lOGO-152" value="Xử lý thao tác" style="rounded=1;whiteSpace=wrap;html=1;arcSize=40;fontColor=#000000;fillColor=#FFFFFF;strokeColor=#000000;" vertex="1" parent="lcf4eC53sndH74b5lOGO-141">
          <mxGeometry x="541" y="652" width="120" height="40" as="geometry" />
        </mxCell>
        <mxCell id="lcf4eC53sndH74b5lOGO-153" style="edgeStyle=orthogonalEdgeStyle;rounded=0;orthogonalLoop=1;jettySize=auto;html=1;exitX=0.5;exitY=1;exitDx=0;exitDy=0;entryX=0.5;entryY=0;entryDx=0;entryDy=0;" edge="1" parent="lcf4eC53sndH74b5lOGO-141" source="lcf4eC53sndH74b5lOGO-154" target="lcf4eC53sndH74b5lOGO-149">
          <mxGeometry relative="1" as="geometry" />
        </mxCell>
        <mxCell id="lcf4eC53sndH74b5lOGO-154" value="Thông báo thành công" style="rounded=1;whiteSpace=wrap;html=1;arcSize=40;fontColor=#000000;fillColor=#FFFFFF;strokeColor=#000000;" vertex="1" parent="lcf4eC53sndH74b5lOGO-141">
          <mxGeometry x="541" y="734" width="120" height="40" as="geometry" />
        </mxCell>
        <mxCell id="lcf4eC53sndH74b5lOGO-155" style="edgeStyle=orthogonalEdgeStyle;rounded=0;orthogonalLoop=1;jettySize=auto;html=1;exitX=1;exitY=0.5;exitDx=0;exitDy=0;entryX=0;entryY=0.5;entryDx=0;entryDy=0;" edge="1" parent="lcf4eC53sndH74b5lOGO-141" source="lcf4eC53sndH74b5lOGO-156" target="lcf4eC53sndH74b5lOGO-147">
          <mxGeometry relative="1" as="geometry" />
        </mxCell>
        <mxCell id="lcf4eC53sndH74b5lOGO-157" value="Hiển thị biểu mẫu thông tin trống" style="rounded=1;whiteSpace=wrap;html=1;arcSize=40;fontColor=#000000;fillColor=#FFFFFF;strokeColor=#000000;" vertex="1" parent="lcf4eC53sndH74b5lOGO-141">
          <mxGeometry x="37" y="757" width="120" height="40" as="geometry" />
        </mxCell>
        <mxCell id="lcf4eC53sndH74b5lOGO-161" style="edgeStyle=orthogonalEdgeStyle;rounded=0;orthogonalLoop=1;jettySize=auto;html=1;exitX=1;exitY=0.5;exitDx=0;exitDy=0;entryX=0;entryY=0.5;entryDx=0;entryDy=0;" edge="1" parent="lcf4eC53sndH74b5lOGO-141" source="lcf4eC53sndH74b5lOGO-162" target="lcf4eC53sndH74b5lOGO-149">
          <mxGeometry relative="1" as="geometry" />
        </mxCell>
        <mxCell id="lcf4eC53sndH74b5lOGO-162" value="Hiển thị danh sách sản phẩm dựa trên thông tin tìm kiếm" style="rounded=1;whiteSpace=wrap;html=1;arcSize=40;fontColor=#000000;fillColor=#FFFFFF;strokeColor=#000000;" vertex="1" parent="lcf4eC53sndH74b5lOGO-141">
          <mxGeometry x="33" y="840.5" width="139" height="55" as="geometry" />
        </mxCell>
        <mxCell id="lcf4eC53sndH74b5lOGO-193" style="edgeStyle=orthogonalEdgeStyle;rounded=0;orthogonalLoop=1;jettySize=auto;html=1;exitX=1;exitY=0.5;exitDx=0;exitDy=0;entryX=0.5;entryY=0;entryDx=0;entryDy=0;" edge="1" parent="lcf4eC53sndH74b5lOGO-141" source="lcf4eC53sndH74b5lOGO-191" target="lcf4eC53sndH74b5lOGO-192">
          <mxGeometry relative="1" as="geometry" />
        </mxCell>
        <mxCell id="lcf4eC53sndH74b5lOGO-201" style="edgeStyle=orthogonalEdgeStyle;rounded=0;orthogonalLoop=1;jettySize=auto;html=1;exitX=0.5;exitY=1;exitDx=0;exitDy=0;" edge="1" parent="lcf4eC53sndH74b5lOGO-141" source="lcf4eC53sndH74b5lOGO-198" target="lcf4eC53sndH74b5lOGO-152">
          <mxGeometry relative="1" as="geometry" />
        </mxCell>
        <mxCell id="lcf4eC53sndH74b5lOGO-198" value="" style="rhombus;whiteSpace=wrap;html=1;" vertex="1" parent="lcf4eC53sndH74b5lOGO-141">
          <mxGeometry x="576" y="586" width="50" height="40" as="geometry" />
        </mxCell>
        <mxCell id="lcf4eC53sndH74b5lOGO-253" value="" style="edgeStyle=orthogonalEdgeStyle;rounded=0;orthogonalLoop=1;jettySize=auto;html=1;" edge="1" parent="lcf4eC53sndH74b5lOGO-141" source="lcf4eC53sndH74b5lOGO-230" target="lcf4eC53sndH74b5lOGO-231">
          <mxGeometry relative="1" as="geometry" />
        </mxCell>
        <mxCell id="lcf4eC53sndH74b5lOGO-230" value="Kiểm tra xác nhận" style="rounded=1;whiteSpace=wrap;html=1;arcSize=40;fontColor=#000000;fillColor=#FFFFFF;strokeColor=#000000;" vertex="1" parent="lcf4eC53sndH74b5lOGO-141">
          <mxGeometry x="307" y="352" width="150" height="40" as="geometry" />
        </mxCell>
        <mxCell id="lcf4eC53sndH74b5lOGO-237" style="edgeStyle=orthogonalEdgeStyle;rounded=0;orthogonalLoop=1;jettySize=auto;html=1;exitX=0.5;exitY=1;exitDx=0;exitDy=0;entryX=0.5;entryY=0;entryDx=0;entryDy=0;" edge="1" parent="lcf4eC53sndH74b5lOGO-141" source="lcf4eC53sndH74b5lOGO-231" target="lcf4eC53sndH74b5lOGO-198">
          <mxGeometry relative="1" as="geometry" />
        </mxCell>
        <mxCell id="lcf4eC53sndH74b5lOGO-238" value="[Xác nhận]" style="edgeLabel;html=1;align=center;verticalAlign=middle;resizable=0;points=[];" vertex="1" connectable="0" parent="lcf4eC53sndH74b5lOGO-237">
          <mxGeometry x="-0.855" y="1" relative="1" as="geometry">
            <mxPoint as="offset" />
          </mxGeometry>
        </mxCell>
        <mxCell id="lcf4eC53sndH74b5lOGO-259" style="edgeStyle=orthogonalEdgeStyle;rounded=0;orthogonalLoop=1;jettySize=auto;html=1;exitX=0.5;exitY=0;exitDx=0;exitDy=0;" edge="1" parent="lcf4eC53sndH74b5lOGO-141" source="lcf4eC53sndH74b5lOGO-231" target="lcf4eC53sndH74b5lOGO-243">
          <mxGeometry relative="1" as="geometry" />
        </mxCell>
        <mxCell id="lcf4eC53sndH74b5lOGO-261" value="[Không xác nhận]" style="edgeLabel;html=1;align=center;verticalAlign=middle;resizable=0;points=[];" vertex="1" connectable="0" parent="lcf4eC53sndH74b5lOGO-259">
          <mxGeometry x="0.043" y="4" relative="1" as="geometry">
            <mxPoint as="offset" />
          </mxGeometry>
        </mxCell>
        <mxCell id="lcf4eC53sndH74b5lOGO-231" value="" style="rhombus;whiteSpace=wrap;html=1;" vertex="1" parent="lcf4eC53sndH74b5lOGO-141">
          <mxGeometry x="576" y="352" width="50" height="40" as="geometry" />
        </mxCell>
        <mxCell id="lcf4eC53sndH74b5lOGO-242" value="" style="ellipse;html=1;shape=endState;fillColor=#000000;strokeColor=#000000;" vertex="1" parent="lcf4eC53sndH74b5lOGO-141">
          <mxGeometry x="586" y="164" width="30" height="30" as="geometry" />
        </mxCell>
        <mxCell id="lcf4eC53sndH74b5lOGO-260" value="" style="edgeStyle=orthogonalEdgeStyle;rounded=0;orthogonalLoop=1;jettySize=auto;html=1;" edge="1" parent="lcf4eC53sndH74b5lOGO-141" source="lcf4eC53sndH74b5lOGO-243" target="lcf4eC53sndH74b5lOGO-242">
          <mxGeometry relative="1" as="geometry" />
        </mxCell>
        <mxCell id="lcf4eC53sndH74b5lOGO-243" value="Thông báo hủy thao tác" style="rounded=1;whiteSpace=wrap;html=1;arcSize=40;fontColor=#000000;fillColor=#FFFFFF;strokeColor=#000000;" vertex="1" parent="lcf4eC53sndH74b5lOGO-141">
          <mxGeometry x="535.5" y="251" width="131" height="39" as="geometry" />
        </mxCell>
        <mxCell id="lcf4eC53sndH74b5lOGO-174" value="Điền thông tin vào biểu mẫu" style="rounded=1;whiteSpace=wrap;html=1;arcSize=40;fontColor=#000000;fillColor=#FFFFFF;strokeColor=#000000;" vertex="1" parent="lcf4eC53sndH74b5lOGO-141">
          <mxGeometry x="-179" y="654" width="150" height="40" as="geometry" />
        </mxCell>
        <mxCell id="lcf4eC53sndH74b5lOGO-184" style="edgeStyle=orthogonalEdgeStyle;rounded=0;orthogonalLoop=1;jettySize=auto;html=1;exitX=1;exitY=0.5;exitDx=0;exitDy=0;entryX=0;entryY=0.5;entryDx=0;entryDy=0;" edge="1" parent="lcf4eC53sndH74b5lOGO-141" source="lcf4eC53sndH74b5lOGO-174" target="lcf4eC53sndH74b5lOGO-156">
          <mxGeometry relative="1" as="geometry" />
        </mxCell>
        <mxCell id="lcf4eC53sndH74b5lOGO-156" value="Kiểm tra tính hợp lệ của thông tin" style="rounded=1;whiteSpace=wrap;html=1;arcSize=40;fontColor=#000000;fillColor=#FFFFFF;strokeColor=#000000;" vertex="1" parent="lcf4eC53sndH74b5lOGO-141">
          <mxGeometry x="87" y="587" width="150" height="40" as="geometry" />
        </mxCell>
        <mxCell id="lcf4eC53sndH74b5lOGO-185" style="edgeStyle=orthogonalEdgeStyle;rounded=0;orthogonalLoop=1;jettySize=auto;html=1;exitX=0;exitY=0.5;exitDx=0;exitDy=0;entryX=0.843;entryY=0.92;entryDx=0;entryDy=0;entryPerimeter=0;" edge="1" parent="lcf4eC53sndH74b5lOGO-141" source="lcf4eC53sndH74b5lOGO-148" target="lcf4eC53sndH74b5lOGO-174">
          <mxGeometry relative="1" as="geometry" />
        </mxCell>
        <mxCell id="lcf4eC53sndH74b5lOGO-150" value="Hiển thị biểu mẫu gồm thông tin sản phẩm" style="rounded=1;whiteSpace=wrap;html=1;arcSize=40;fontColor=#000000;fillColor=#FFFFFF;strokeColor=#000000;" vertex="1" parent="lcf4eC53sndH74b5lOGO-141">
          <mxGeometry x="87" y="489" width="140" height="60" as="geometry" />
        </mxCell>
        <mxCell id="lcf4eC53sndH74b5lOGO-195" style="edgeStyle=orthogonalEdgeStyle;rounded=0;orthogonalLoop=1;jettySize=auto;html=1;exitX=1;exitY=0.5;exitDx=0;exitDy=0;entryX=0.84;entryY=0.087;entryDx=0;entryDy=0;entryPerimeter=0;" edge="1" parent="lcf4eC53sndH74b5lOGO-141" source="lcf4eC53sndH74b5lOGO-192" target="lcf4eC53sndH74b5lOGO-174">
          <mxGeometry relative="1" as="geometry" />
        </mxCell>
        <mxCell id="lcf4eC53sndH74b5lOGO-191" value="Hiển thị biểu mẫu trống cho thông tin sản phẩm" style="rounded=1;whiteSpace=wrap;html=1;arcSize=40;fontColor=#000000;fillColor=#FFFFFF;strokeColor=#000000;" vertex="1" parent="lcf4eC53sndH74b5lOGO-141">
          <mxGeometry x="87" y="403" width="140" height="60" as="geometry" />
        </mxCell>
        <mxCell id="lcf4eC53sndH74b5lOGO-192" value="" style="rhombus;whiteSpace=wrap;html=1;" vertex="1" parent="lcf4eC53sndH74b5lOGO-141">
          <mxGeometry x="323" y="456" width="50" height="40" as="geometry" />
        </mxCell>
        <mxCell id="lcf4eC53sndH74b5lOGO-147" value="" style="rhombus;whiteSpace=wrap;html=1;" vertex="1" parent="lcf4eC53sndH74b5lOGO-141">
          <mxGeometry x="301" y="587" width="50" height="40" as="geometry" />
        </mxCell>
        <mxCell id="lcf4eC53sndH74b5lOGO-148" value="Thông báo thông tin không hợp lệ" style="rounded=1;whiteSpace=wrap;html=1;arcSize=40;fontColor=#000000;fillColor=#FFFFFF;strokeColor=#000000;" vertex="1" parent="lcf4eC53sndH74b5lOGO-141">
          <mxGeometry x="251" y="708" width="150" height="40" as="geometry" />
        </mxCell>
        <mxCell id="lcf4eC53sndH74b5lOGO-246" value="HIển thị cảnh báo" style="rounded=1;whiteSpace=wrap;html=1;arcSize=40;fontColor=#000000;fillColor=#FFFFFF;strokeColor=#000000;" vertex="1" parent="lcf4eC53sndH74b5lOGO-141">
          <mxGeometry x="27.5" y="283" width="150" height="40" as="geometry" />
        </mxCell>
        <mxCell id="lcf4eC53sndH74b5lOGO-163" value="Người dùng" style="swimlane;startSize=23;" vertex="1" parent="1">
          <mxGeometry x="-149" y="190" width="542" height="909" as="geometry" />
        </mxCell>
        <mxCell id="lcf4eC53sndH74b5lOGO-164" value="Chọn chức năng Quản lý sản phẩm" style="rounded=1;whiteSpace=wrap;html=1;arcSize=40;fontColor=#000000;fillColor=#FFFFFF;strokeColor=#000000;" vertex="1" parent="lcf4eC53sndH74b5lOGO-163">
          <mxGeometry x="30" y="110" width="130" height="40" as="geometry" />
        </mxCell>
        <mxCell id="lcf4eC53sndH74b5lOGO-165" value="" style="ellipse;html=1;shape=startState;fillColor=#000000;strokeColor=#000000;" vertex="1" parent="lcf4eC53sndH74b5lOGO-163">
          <mxGeometry x="80" y="40" width="30" height="30" as="geometry" />
        </mxCell>
        <mxCell id="lcf4eC53sndH74b5lOGO-166" value="" style="edgeStyle=orthogonalEdgeStyle;html=1;verticalAlign=bottom;endArrow=open;endSize=8;strokeColor=#000000;rounded=0;entryX=0.5;entryY=0;entryDx=0;entryDy=0;" edge="1" parent="lcf4eC53sndH74b5lOGO-163" source="lcf4eC53sndH74b5lOGO-165" target="lcf4eC53sndH74b5lOGO-164">
          <mxGeometry relative="1" as="geometry">
            <mxPoint x="90" y="130" as="targetPoint" />
          </mxGeometry>
        </mxCell>
        <mxCell id="lcf4eC53sndH74b5lOGO-167" style="edgeStyle=orthogonalEdgeStyle;rounded=0;orthogonalLoop=1;jettySize=auto;html=1;exitX=0.5;exitY=1;exitDx=0;exitDy=0;entryX=0.5;entryY=0;entryDx=0;entryDy=0;" edge="1" parent="lcf4eC53sndH74b5lOGO-163" source="lcf4eC53sndH74b5lOGO-168" target="lcf4eC53sndH74b5lOGO-173">
          <mxGeometry relative="1" as="geometry" />
        </mxCell>
        <mxCell id="lcf4eC53sndH74b5lOGO-168" value="Kiểm tra chức vụ" style="rounded=1;whiteSpace=wrap;html=1;arcSize=40;fontColor=#000000;fillColor=#FFFFFF;strokeColor=#000000;" vertex="1" parent="lcf4eC53sndH74b5lOGO-163">
          <mxGeometry x="35" y="218" width="128" height="42" as="geometry" />
        </mxCell>
        <mxCell id="lcf4eC53sndH74b5lOGO-169" style="edgeStyle=orthogonalEdgeStyle;rounded=0;orthogonalLoop=1;jettySize=auto;html=1;exitX=1;exitY=0.5;exitDx=0;exitDy=0;entryX=0;entryY=0.5;entryDx=0;entryDy=0;" edge="1" parent="lcf4eC53sndH74b5lOGO-163" source="lcf4eC53sndH74b5lOGO-173" target="lcf4eC53sndH74b5lOGO-175">
          <mxGeometry relative="1" as="geometry">
            <mxPoint x="234" y="334" as="targetPoint" />
          </mxGeometry>
        </mxCell>
        <mxCell id="lcf4eC53sndH74b5lOGO-170" value="[Quản lý cửa hàng&lt;div&gt;hoặc quản trị viên]&lt;/div&gt;" style="edgeLabel;html=1;align=center;verticalAlign=middle;resizable=0;points=[];" vertex="1" connectable="0" parent="lcf4eC53sndH74b5lOGO-169">
          <mxGeometry x="-0.5309" y="-1" relative="1" as="geometry">
            <mxPoint x="12" y="-17" as="offset" />
          </mxGeometry>
        </mxCell>
        <mxCell id="lcf4eC53sndH74b5lOGO-171" style="edgeStyle=orthogonalEdgeStyle;rounded=0;orthogonalLoop=1;jettySize=auto;html=1;exitX=0.5;exitY=1;exitDx=0;exitDy=0;entryX=0.448;entryY=0.062;entryDx=0;entryDy=0;entryPerimeter=0;" edge="1" parent="lcf4eC53sndH74b5lOGO-163" source="lcf4eC53sndH74b5lOGO-173" target="lcf4eC53sndH74b5lOGO-180">
          <mxGeometry relative="1" as="geometry">
            <mxPoint x="95" y="370" as="targetPoint" />
          </mxGeometry>
        </mxCell>
        <mxCell id="lcf4eC53sndH74b5lOGO-172" value="[Khác]" style="edgeLabel;html=1;align=center;verticalAlign=middle;resizable=0;points=[];" vertex="1" connectable="0" parent="lcf4eC53sndH74b5lOGO-171">
          <mxGeometry x="-0.305" y="-1" relative="1" as="geometry">
            <mxPoint as="offset" />
          </mxGeometry>
        </mxCell>
        <mxCell id="lcf4eC53sndH74b5lOGO-173" value="" style="rhombus;whiteSpace=wrap;html=1;" vertex="1" parent="lcf4eC53sndH74b5lOGO-163">
          <mxGeometry x="70" y="290" width="50" height="40" as="geometry" />
        </mxCell>
        <mxCell id="lcf4eC53sndH74b5lOGO-175" value="Thực hiện các thao tác quản lý" style="rounded=1;whiteSpace=wrap;html=1;arcSize=40;fontColor=#000000;fillColor=#FFFFFF;strokeColor=#000000;" vertex="1" parent="lcf4eC53sndH74b5lOGO-163">
          <mxGeometry x="246" y="215" width="128" height="42" as="geometry" />
        </mxCell>
        <mxCell id="lcf4eC53sndH74b5lOGO-176" style="edgeStyle=orthogonalEdgeStyle;rounded=0;orthogonalLoop=1;jettySize=auto;html=1;exitX=0.113;exitY=0.546;exitDx=0;exitDy=0;entryX=1;entryY=0.5;entryDx=0;entryDy=0;exitPerimeter=0;" edge="1" parent="lcf4eC53sndH74b5lOGO-163" source="lcf4eC53sndH74b5lOGO-178" target="lcf4eC53sndH74b5lOGO-180">
          <mxGeometry relative="1" as="geometry">
            <Array as="points">
              <mxPoint x="244" y="305" />
              <mxPoint x="244" y="403" />
            </Array>
          </mxGeometry>
        </mxCell>
        <mxCell id="lcf4eC53sndH74b5lOGO-177" value="[Tìm kiếm]" style="edgeLabel;html=1;align=center;verticalAlign=middle;resizable=0;points=[];" vertex="1" connectable="0" parent="lcf4eC53sndH74b5lOGO-176">
          <mxGeometry x="-0.8581" y="-1" relative="1" as="geometry">
            <mxPoint x="-23" y="26" as="offset" />
          </mxGeometry>
        </mxCell>
        <mxCell id="lcf4eC53sndH74b5lOGO-178" value="" style="rhombus;whiteSpace=wrap;html=1;" vertex="1" parent="lcf4eC53sndH74b5lOGO-163">
          <mxGeometry x="285" y="283" width="50" height="40" as="geometry" />
        </mxCell>
        <mxCell id="lcf4eC53sndH74b5lOGO-179" style="edgeStyle=orthogonalEdgeStyle;rounded=0;orthogonalLoop=1;jettySize=auto;html=1;exitX=0.5;exitY=1;exitDx=0;exitDy=0;entryX=0.498;entryY=0.113;entryDx=0;entryDy=0;entryPerimeter=0;" edge="1" parent="lcf4eC53sndH74b5lOGO-163" source="lcf4eC53sndH74b5lOGO-175" target="lcf4eC53sndH74b5lOGO-178">
          <mxGeometry relative="1" as="geometry" />
        </mxCell>
        <mxCell id="lcf4eC53sndH74b5lOGO-180" value="Tìm kiếm sản phẩm" style="rounded=1;whiteSpace=wrap;html=1;arcSize=40;fontColor=#000000;fillColor=#FFFFFF;strokeColor=#000000;" vertex="1" parent="lcf4eC53sndH74b5lOGO-163">
          <mxGeometry x="39" y="382" width="128" height="42" as="geometry" />
        </mxCell>
        <mxCell id="lcf4eC53sndH74b5lOGO-158" value="Điền thông tin vào biểu mẫu" style="rounded=1;whiteSpace=wrap;html=1;arcSize=40;fontColor=#000000;fillColor=#FFFFFF;strokeColor=#000000;" vertex="1" parent="lcf4eC53sndH74b5lOGO-163">
          <mxGeometry x="132" y="848" width="120" height="40" as="geometry" />
        </mxCell>
        <mxCell id="lcf4eC53sndH74b5lOGO-203" value="Xác nhận cảnh báo" style="rounded=1;whiteSpace=wrap;html=1;arcSize=40;fontColor=#000000;fillColor=#FFFFFF;strokeColor=#000000;" vertex="1" parent="lcf4eC53sndH74b5lOGO-163">
          <mxGeometry x="368" y="342" width="150" height="40" as="geometry" />
        </mxCell>
        <mxCell id="lcf4eC53sndH74b5lOGO-181" style="edgeStyle=orthogonalEdgeStyle;rounded=0;orthogonalLoop=1;jettySize=auto;html=1;exitX=1;exitY=0.5;exitDx=0;exitDy=0;" edge="1" parent="1" source="lcf4eC53sndH74b5lOGO-164" target="lcf4eC53sndH74b5lOGO-142">
          <mxGeometry relative="1" as="geometry" />
        </mxCell>
        <mxCell id="lcf4eC53sndH74b5lOGO-182" style="edgeStyle=orthogonalEdgeStyle;rounded=0;orthogonalLoop=1;jettySize=auto;html=1;exitX=0.5;exitY=1;exitDx=0;exitDy=0;entryX=0.5;entryY=0;entryDx=0;entryDy=0;" edge="1" parent="1" source="lcf4eC53sndH74b5lOGO-142" target="lcf4eC53sndH74b5lOGO-168">
          <mxGeometry relative="1" as="geometry">
            <mxPoint x="173" y="406" as="targetPoint" />
          </mxGeometry>
        </mxCell>
        <mxCell id="lcf4eC53sndH74b5lOGO-186" style="edgeStyle=orthogonalEdgeStyle;rounded=0;orthogonalLoop=1;jettySize=auto;html=1;exitX=0;exitY=1;exitDx=0;exitDy=0;entryX=0;entryY=0.75;entryDx=0;entryDy=0;" edge="1" parent="1" source="lcf4eC53sndH74b5lOGO-178" target="lcf4eC53sndH74b5lOGO-150">
          <mxGeometry relative="1" as="geometry">
            <Array as="points">
              <mxPoint x="149" y="724" />
            </Array>
          </mxGeometry>
        </mxCell>
        <mxCell id="lcf4eC53sndH74b5lOGO-187" value="[Sửa]" style="edgeLabel;html=1;align=center;verticalAlign=middle;resizable=0;points=[];" vertex="1" connectable="0" parent="lcf4eC53sndH74b5lOGO-186">
          <mxGeometry x="-0.8702" y="-2" relative="1" as="geometry">
            <mxPoint x="3" y="11" as="offset" />
          </mxGeometry>
        </mxCell>
        <mxCell id="lcf4eC53sndH74b5lOGO-188" style="edgeStyle=orthogonalEdgeStyle;rounded=0;orthogonalLoop=1;jettySize=auto;html=1;exitX=0.5;exitY=1;exitDx=0;exitDy=0;entryX=0;entryY=0.5;entryDx=0;entryDy=0;" edge="1" parent="1" source="lcf4eC53sndH74b5lOGO-180" target="lcf4eC53sndH74b5lOGO-157">
          <mxGeometry relative="1" as="geometry" />
        </mxCell>
        <mxCell id="lcf4eC53sndH74b5lOGO-189" style="edgeStyle=orthogonalEdgeStyle;rounded=0;orthogonalLoop=1;jettySize=auto;html=1;entryX=0;entryY=0.5;entryDx=0;entryDy=0;exitX=1;exitY=1;exitDx=0;exitDy=0;" edge="1" parent="1" source="lcf4eC53sndH74b5lOGO-178" target="lcf4eC53sndH74b5lOGO-191">
          <mxGeometry relative="1" as="geometry">
            <mxPoint x="493.10003662109375" y="416.97003051757815" as="targetPoint" />
            <mxPoint x="292" y="569" as="sourcePoint" />
            <Array as="points">
              <mxPoint x="173" y="623" />
            </Array>
          </mxGeometry>
        </mxCell>
        <mxCell id="lcf4eC53sndH74b5lOGO-190" value="[Thêm]" style="edgeLabel;html=1;align=center;verticalAlign=middle;resizable=0;points=[];" vertex="1" connectable="0" parent="lcf4eC53sndH74b5lOGO-189">
          <mxGeometry x="-0.619" y="2" relative="1" as="geometry">
            <mxPoint x="-3" y="-10" as="offset" />
          </mxGeometry>
        </mxCell>
        <mxCell id="lcf4eC53sndH74b5lOGO-159" style="edgeStyle=orthogonalEdgeStyle;rounded=0;orthogonalLoop=1;jettySize=auto;html=1;exitX=0.5;exitY=1;exitDx=0;exitDy=0;entryX=0.5;entryY=0;entryDx=0;entryDy=0;" edge="1" parent="1" source="lcf4eC53sndH74b5lOGO-157" target="lcf4eC53sndH74b5lOGO-158">
          <mxGeometry relative="1" as="geometry">
            <mxPoint x="124" y="1123" as="targetPoint" />
          </mxGeometry>
        </mxCell>
        <mxCell id="lcf4eC53sndH74b5lOGO-160" style="edgeStyle=orthogonalEdgeStyle;rounded=0;orthogonalLoop=1;jettySize=auto;html=1;exitX=1;exitY=0.5;exitDx=0;exitDy=0;" edge="1" parent="1" source="lcf4eC53sndH74b5lOGO-158" target="lcf4eC53sndH74b5lOGO-162">
          <mxGeometry relative="1" as="geometry" />
        </mxCell>
        <mxCell id="lcf4eC53sndH74b5lOGO-247" value="" style="edgeStyle=orthogonalEdgeStyle;rounded=0;orthogonalLoop=1;jettySize=auto;html=1;exitX=1;exitY=0.5;exitDx=0;exitDy=0;entryX=0;entryY=0.5;entryDx=0;entryDy=0;" edge="1" parent="1" source="lcf4eC53sndH74b5lOGO-178" target="lcf4eC53sndH74b5lOGO-246">
          <mxGeometry relative="1" as="geometry">
            <mxPoint x="577" y="493" as="targetPoint" />
            <mxPoint x="292" y="493" as="sourcePoint" />
          </mxGeometry>
        </mxCell>
        <mxCell id="lcf4eC53sndH74b5lOGO-248" value="[Xóa]" style="edgeLabel;html=1;align=center;verticalAlign=middle;resizable=0;points=[];" vertex="1" connectable="0" parent="lcf4eC53sndH74b5lOGO-247">
          <mxGeometry x="-0.9021" y="-4" relative="1" as="geometry">
            <mxPoint x="10" y="-7" as="offset" />
          </mxGeometry>
        </mxCell>
        <mxCell id="lcf4eC53sndH74b5lOGO-252" style="edgeStyle=orthogonalEdgeStyle;rounded=0;orthogonalLoop=1;jettySize=auto;html=1;exitX=1;exitY=0.75;exitDx=0;exitDy=0;" edge="1" parent="1" source="lcf4eC53sndH74b5lOGO-203" target="lcf4eC53sndH74b5lOGO-230">
          <mxGeometry relative="1" as="geometry" />
        </mxCell>
        <mxCell id="lcf4eC53sndH74b5lOGO-263" style="edgeStyle=orthogonalEdgeStyle;rounded=0;orthogonalLoop=1;jettySize=auto;html=1;exitX=0;exitY=0.75;exitDx=0;exitDy=0;entryX=0.5;entryY=0;entryDx=0;entryDy=0;" edge="1" parent="1" source="lcf4eC53sndH74b5lOGO-246" target="lcf4eC53sndH74b5lOGO-203">
          <mxGeometry relative="1" as="geometry" />
        </mxCell>
      </root>
    </mxGraphModel>
  </diagram>
</mxfile>
